<svg width="124" height="124" viewBox="0 0 124 124" fill="none" xmlns="http://www.w3.org/2000/svg">
<path d="M124 49.7751V59.149L62 105.344L61.9734 105.363L0 59.149V49.7751L17.159 36.6151H106.841L124 49.7751Z" fill="#186A81"/>
<path d="M124 49.7751V59.149L62 105.344V36.6151H106.841L124 49.7751Z" fill="#00465F"/>
<path d="M108.258 0V72.3702L62.0291 102.865L62 102.846L15.7422 72.3608V0L108.258 0Z" fill="#EAF4F4"/>
<path d="M108.258 0V72.3702L62.0291 102.865L62 102.846V0L108.258 0Z" fill="#CAE8EA"/>
<path d="M124 66.393V124H0V59.1489L61.9734 98.1196L62.0291 98.1557L124 66.393Z" fill="#FFE26F"/>
<path d="M124 59.1489V124H61.9734V98.1196L62.0291 98.1557L124 59.1489Z" fill="#FFC271"/>
<path d="M62 77.9214C78.9309 77.9214 92.6561 64.1962 92.6561 47.2654C92.6561 30.3345 78.9309 16.6093 62 16.6093C45.0691 16.6093 31.3439 30.3345 31.3439 47.2654C31.3439 64.1962 45.0691 77.9214 62 77.9214Z" fill="#00DC7B"/>
<path d="M92.6561 47.2654C92.6561 64.17 78.9047 77.9214 62 77.9214V16.6093C78.9047 16.6093 92.6561 30.3607 92.6561 47.2654Z" fill="#00AA8E"/>
<path d="M75.732 41.8742L58.8443 58.762L48.268 48.1856L53.4048 43.0488L58.8443 48.4884L62 45.3327L70.5952 36.7374L75.732 41.8742Z" fill="white"/>
<path d="M75.732 41.8742L62 55.6063V45.3327L70.5952 36.7374L75.732 41.8742Z" fill="#EAF4F4"/>
</svg>
