<svg width="124" height="124" viewBox="0 0 124 124" fill="none" xmlns="http://www.w3.org/2000/svg">
<path d="M58.6191 101.931C58.3002 100.36 57.6276 98.8816 56.6524 97.6089C55.6772 96.3361 54.4249 95.3022 52.9906 94.5855L40.6463 89.3155V88.9932C37.7315 90.3559 34.5531 91.0622 31.3354 91.0622C28.1178 91.0622 24.9394 90.3559 22.0245 88.9932V89.3155L9.68023 94.5855C8.05802 95.396 6.6718 96.6105 5.65506 98.1121C4.63831 99.6137 4.02528 101.352 3.875 103.159V116.581H58.7959V103.159C58.7629 102.746 58.7039 102.336 58.6191 101.931Z" fill="#50A6EA"/>
<path d="M16.9459 94.5856L26.4752 90.5169C24.9413 90.1699 23.4492 89.659 22.0245 88.993V89.3154L9.68023 94.5854C8.05799 95.3959 6.67175 96.6105 5.655 98.1121C4.63825 99.6137 4.02524 101.352 3.875 103.159V116.581H11.1406V103.159C11.2909 101.352 11.9039 99.6138 12.9207 98.1122C13.9374 96.6107 15.3236 95.3962 16.9459 94.5856Z" fill="#72BCEF"/>
<path d="M115.281 11.8785H49.9004C48.6157 11.8785 47.3837 12.3889 46.4753 13.2972C45.5669 14.2056 45.0566 15.4376 45.0566 16.7223V30.4374C48.601 34.1627 50.575 39.1097 50.5688 44.2517V51.917H51.0435C51.8423 51.9788 52.601 52.2919 53.2109 52.8113C53.8209 53.3308 54.2507 54.03 54.439 54.8087C54.6035 55.4793 54.6286 56.1766 54.5127 56.8574C54.3969 57.5381 54.1425 58.1878 53.7654 58.7663C53.3884 59.3448 52.8965 59.8397 52.3204 60.2204C51.7443 60.6011 51.0962 60.8595 50.4162 60.9796V63.4693C50.423 68.4875 48.5037 73.317 45.0542 76.9616L45.0566 76.964V91.1998L52.9907 94.5856C54.425 95.3023 55.6772 96.3362 56.6524 97.6089C57.6276 98.8817 58.3002 100.36 58.6191 101.931H115.281C115.917 101.931 116.547 101.806 117.135 101.563C117.723 101.319 118.257 100.963 118.707 100.513C119.157 100.063 119.513 99.529 119.757 98.9412C120 98.3535 120.125 97.7235 120.125 97.0874V16.7223C120.125 15.4376 119.615 14.2056 118.706 13.2972C117.798 12.3889 116.566 11.8785 115.281 11.8785Z" fill="#E5F5FD"/>
<path d="M69.7185 56.1674C77.7439 56.1674 84.2498 49.6615 84.2498 41.6361C84.2498 33.6107 77.7439 27.1049 69.7185 27.1049C61.6931 27.1049 55.1873 33.6107 55.1873 41.6361C55.1873 49.6615 61.6931 56.1674 69.7185 56.1674Z" fill="#49C160"/>
<path d="M60.031 41.6359C60.0322 38.2023 61.2488 34.8801 63.4653 32.2578C65.6818 29.6356 68.755 27.8826 72.1404 27.3095C70.0562 26.9559 67.9199 27.0612 65.8806 27.6183C63.8413 28.1753 61.9481 29.1705 60.3331 30.5346C58.7181 31.8987 57.4201 33.5987 56.5298 35.5161C55.6395 37.4334 55.1782 39.522 55.1782 41.636C55.1782 43.75 55.6395 45.8385 56.5298 47.7559C57.4201 49.6733 58.7181 51.3733 60.3331 52.7374C61.9481 54.1014 63.8413 55.0967 65.8806 55.6537C67.9199 56.2107 70.0562 56.3161 72.1404 55.9625C68.7548 55.3898 65.6813 53.6369 63.4647 51.0145C61.2482 48.3921 60.0317 45.0695 60.031 41.6359Z" fill="#5AE070"/>
<path d="M50.5687 51.917V52.1398C50.5687 52.1398 33.4194 55.1623 21.9203 44.9153C19.5589 45.114 17.1878 45.1739 14.8194 45.0946L14.2841 53.8787C14.2789 53.9454 14.2573 54.0099 14.2211 54.0663C14.185 54.1226 14.1354 54.1692 14.077 54.2018C14.0185 54.2344 13.9528 54.252 13.8859 54.2531C13.8189 54.2542 13.7527 54.2387 13.6932 54.2081L11.3198 52.9899C11.0691 52.8606 10.856 52.6691 10.7007 52.4337C10.5455 52.1983 10.4534 51.927 10.4333 51.6457V44.2517C10.4333 38.9295 12.5476 33.8252 16.311 30.0618C20.0744 26.2983 25.1787 24.1841 30.501 24.1841C35.8233 24.1841 40.9276 26.2983 44.691 30.0618C48.4544 33.8252 50.5687 38.9295 50.5687 44.2517V51.917Z" fill="#4A5160"/>
<path d="M21.155 30.062C24.3286 26.8832 28.4797 24.8649 32.9398 24.3323C32.1306 24.2339 31.3162 24.1844 30.501 24.1841C25.1788 24.1843 20.0746 26.2986 16.3112 30.062C12.5479 33.8253 10.4335 38.9295 10.4333 44.2517V51.6457C10.4534 51.927 10.5455 52.1983 10.7007 52.4337C10.856 52.6691 11.0691 52.8606 11.3198 52.9899L13.6932 54.2081C13.7527 54.2387 13.8189 54.2541 13.8858 54.253C13.9528 54.2519 14.0184 54.2342 14.0769 54.2016C14.1353 54.169 14.1848 54.1225 14.221 54.0662C14.2572 54.0098 14.2789 53.9454 14.2841 53.8787C14.2841 53.8787 13.241 37.975 21.155 30.062Z" fill="#58606D"/>
<path d="M40.6462 80.4661V88.9935C37.7314 90.3561 34.5529 91.0624 31.3353 91.0624C28.1177 91.0624 24.9393 90.3561 22.0244 88.9935V81.1006C24.9394 82.5408 28.1657 83.2367 31.4151 83.126C34.6646 83.0152 37.8361 82.1014 40.6462 80.4661Z" fill="#EFC597"/>
<path d="M26.8682 88.9932V82.7528C25.1881 82.4167 23.5596 81.8612 22.0244 81.1006V88.9932C25.6833 90.7038 29.7428 91.3733 33.7572 90.9281C31.3705 90.664 29.0433 90.0104 26.8682 88.9932Z" fill="#D8AD82"/>
<path d="M40.6464 80.466C37.6577 82.2075 34.2624 83.1298 30.8033 83.1399C27.3442 83.1501 23.9436 82.2476 20.9447 80.5236C17.9458 78.7996 15.4547 76.3152 13.7228 73.3209C11.9908 70.3266 11.0793 66.9284 11.0802 63.4693V60.9796C10.4006 60.8584 9.75313 60.5993 9.17753 60.2183C8.60193 59.8374 8.11044 59.3426 7.73333 58.7644C7.35623 58.1863 7.1015 57.5371 6.98484 56.8567C6.86818 56.1764 6.89207 55.4794 7.05502 54.8086C7.2438 54.0298 7.67416 53.3306 8.28449 52.8111C8.89483 52.2917 9.65386 51.9787 10.4529 51.9169L10.4747 51.9121C10.5296 52.142 10.6335 52.3574 10.7794 52.5434C10.9253 52.7294 11.1097 52.8817 11.3199 52.9898L13.6934 54.208C13.7529 54.2387 13.8191 54.2542 13.886 54.2531C13.953 54.252 14.0187 54.2343 14.0771 54.2017C14.1356 54.1691 14.1852 54.1226 14.2213 54.0662C14.2575 54.0098 14.2791 53.9454 14.2843 53.8786L14.8196 45.0945C17.188 45.1738 19.5591 45.114 21.9205 44.9153C33.4196 55.1622 50.5688 52.1397 50.5688 52.1397V51.9169H51.0435C51.8423 51.9788 52.601 52.2918 53.2109 52.8113C53.8209 53.3307 54.2508 54.0299 54.439 54.8086C54.6035 55.4793 54.6286 56.1766 54.5128 56.8573C54.3969 57.538 54.1426 58.1878 53.7655 58.7662C53.3884 59.3447 52.8966 59.8396 52.3205 60.2203C51.7444 60.6011 51.0963 60.8595 50.4163 60.9796V63.4693C50.423 68.4875 48.5037 73.3169 45.0542 76.9615C44.9259 77.102 44.7903 77.2401 44.6546 77.3757C43.4571 78.574 42.1099 79.6127 40.6464 80.466Z" fill="#FFD8B7"/>
<path d="M26.8683 81.1007C23.5817 79.4743 20.8153 76.9615 18.8813 73.846C16.9474 70.7305 15.923 67.1364 15.9238 63.4694V60.9797C15.2443 60.8585 14.5968 60.5995 14.0212 60.2185C13.4456 59.8375 12.9541 59.3427 12.577 58.7646C12.1998 58.1864 11.9451 57.5372 11.8285 56.8569C11.7118 56.1766 11.7357 55.4795 11.8986 54.8088C12.0062 54.366 12.1921 53.9461 12.4477 53.5688L11.3198 52.9907C11.1096 52.8826 10.9252 52.7303 10.7793 52.5443C10.6334 52.3583 10.5295 52.1429 10.4746 51.913L10.4528 51.9178C9.65372 51.9796 8.8947 52.2926 8.28436 52.812C7.67402 53.3314 7.24366 54.0306 7.05489 54.8095C6.89053 55.4803 6.86562 56.1777 6.98168 56.8586C7.09775 57.5394 7.35232 58.1892 7.72964 58.7676C8.10696 59.3461 8.599 59.841 9.1753 60.2216C9.7516 60.6022 10.3999 60.8605 11.08 60.9805V63.4702C11.0788 66.0534 11.5866 68.6115 12.5746 70.9983C13.5626 73.3851 15.0112 75.5538 16.8378 77.3804C18.6644 79.207 20.8331 80.6557 23.22 81.6437C25.6068 82.6316 28.1649 83.1395 30.7481 83.1382C31.5564 83.1375 32.3639 83.0876 33.1661 82.9885C30.9753 82.7193 28.8459 82.0809 26.8683 81.1007Z" fill="#E8BC9E"/>
<path d="M108.157 56.5958H97.5332C97.1478 56.5958 96.7782 56.4427 96.5057 56.1702C96.2332 55.8977 96.0801 55.5281 96.0801 55.1427C96.0801 54.7573 96.2332 54.3877 96.5057 54.1152C96.7782 53.8427 97.1478 53.6896 97.5332 53.6896H108.157C108.542 53.6896 108.912 53.8427 109.185 54.1152C109.457 54.3877 109.61 54.7573 109.61 55.1427C109.61 55.5281 109.457 55.8977 109.185 56.1702C108.912 56.4427 108.542 56.5958 108.157 56.5958Z" fill="#B9C8DB"/>
<path d="M91.2737 56.5958H87.71C87.3246 56.5958 86.955 56.4427 86.6824 56.1702C86.4099 55.8977 86.2568 55.5281 86.2568 55.1427C86.2568 54.7573 86.4099 54.3877 86.6824 54.1152C86.955 53.8427 87.3246 53.6896 87.71 53.6896H91.2737C91.6591 53.6896 92.0288 53.8427 92.3013 54.1152C92.5738 54.3877 92.7269 54.7573 92.7269 55.1427C92.7269 55.5281 92.5738 55.8977 92.3013 56.1702C92.0288 56.4427 91.6591 56.5958 91.2737 56.5958Z" fill="#B9C8DB"/>
<path d="M108.157 72.3129H104.55C104.164 72.3129 103.795 72.1598 103.522 71.8873C103.25 71.6147 103.096 71.2451 103.096 70.8597C103.096 70.4743 103.25 70.1047 103.522 69.8322C103.795 69.5597 104.164 69.4066 104.55 69.4066H108.157C108.542 69.4066 108.912 69.5597 109.184 69.8322C109.457 70.1047 109.61 70.4743 109.61 70.8597C109.61 71.2451 109.457 71.6147 109.184 71.8873C108.912 72.1598 108.542 72.3129 108.157 72.3129Z" fill="#B9C8DB"/>
<path d="M99.5238 72.3129H80.2798C79.8944 72.3129 79.5248 72.1598 79.2523 71.8873C78.9798 71.6147 78.8267 71.2451 78.8267 70.8597C78.8267 70.4743 78.9798 70.1047 79.2523 69.8322C79.5248 69.5597 79.8944 69.4066 80.2798 69.4066H99.5238C99.9092 69.4066 100.279 69.5597 100.551 69.8322C100.824 70.1047 100.977 70.4743 100.977 70.8597C100.977 71.2451 100.824 71.6147 100.551 71.8873C100.279 72.1598 99.9092 72.3129 99.5238 72.3129Z" fill="#B9C8DB"/>
<path d="M75.1839 72.3129H73.8855C73.5001 72.3129 73.1305 72.1598 72.858 71.8873C72.5855 71.6147 72.4324 71.2451 72.4324 70.8597C72.4324 70.4743 72.5855 70.1047 72.858 69.8322C73.1305 69.5597 73.5001 69.4066 73.8855 69.4066H75.1839C75.5693 69.4066 75.9389 69.5597 76.2114 69.8322C76.4839 70.1047 76.637 70.4743 76.637 70.8597C76.637 71.2451 76.4839 71.6147 76.2114 71.8873C75.9389 72.1598 75.5693 72.3129 75.1839 72.3129Z" fill="#B9C8DB"/>
<path d="M67.6259 72.3129H59.3872C59.0018 72.3129 58.6322 72.1598 58.3597 71.8873C58.0872 71.6147 57.9341 71.2451 57.9341 70.8597C57.9341 70.4743 58.0872 70.1047 58.3597 69.8322C58.6322 69.5597 59.0018 69.4066 59.3872 69.4066H67.6259C68.0113 69.4066 68.3809 69.5597 68.6534 69.8322C68.926 70.1047 69.0791 70.4743 69.0791 70.8597C69.0791 71.2451 68.926 71.6147 68.6534 71.8873C68.3809 72.1598 68.0113 72.3129 67.6259 72.3129Z" fill="#B9C8DB"/>
<path d="M108.157 86.8395H99.8416C99.4562 86.8395 99.0866 86.6864 98.814 86.4139C98.5415 86.1414 98.3884 85.7717 98.3884 85.3864C98.3884 85.001 98.5415 84.6314 98.814 84.3588C99.0866 84.0863 99.4562 83.9332 99.8416 83.9332H108.157C108.542 83.9332 108.912 84.0863 109.185 84.3588C109.457 84.6314 109.61 85.001 109.61 85.3864C109.61 85.7717 109.457 86.1414 109.185 86.4139C108.912 86.6864 108.542 86.8395 108.157 86.8395Z" fill="#B9C8DB"/>
<path d="M94.6259 86.8395H93.5811C93.1957 86.8395 92.8261 86.6864 92.5535 86.4139C92.281 86.1414 92.1279 85.7717 92.1279 85.3864C92.1279 85.001 92.281 84.6314 92.5535 84.3588C92.8261 84.0863 93.1957 83.9332 93.5811 83.9332H94.6251C95.0105 83.9332 95.3801 84.0863 95.6526 84.3588C95.9252 84.6314 96.0783 85.001 96.0783 85.3864C96.0783 85.7717 95.9252 86.1414 95.6526 86.4139C95.3801 86.6864 95.0105 86.8395 94.6251 86.8395H94.6259Z" fill="#B9C8DB"/>
<path d="M89.4915 86.8395H81.5928C81.2074 86.8395 80.8378 86.6864 80.5653 86.4139C80.2927 86.1414 80.1396 85.7717 80.1396 85.3864C80.1396 85.001 80.2927 84.6314 80.5653 84.3588C80.8378 84.0863 81.2074 83.9332 81.5928 83.9332H89.4917C89.8771 83.9332 90.2467 84.0863 90.5192 84.3588C90.7918 84.6314 90.9449 85.001 90.9449 85.3864C90.9449 85.7717 90.7918 86.1414 90.5192 86.4139C90.2467 86.6864 89.8771 86.8395 89.4917 86.8395H89.4915Z" fill="#B9C8DB"/>
<path d="M75.1839 86.8395H59.3872C59.0018 86.8395 58.6322 86.6864 58.3597 86.4139C58.0872 86.1414 57.9341 85.7717 57.9341 85.3864C57.9341 85.001 58.0872 84.6314 58.3597 84.3588C58.6322 84.0863 59.0018 83.9332 59.3872 83.9332H75.1839C75.5693 83.9332 75.9389 84.0863 76.2114 84.3588C76.4839 84.6314 76.637 85.001 76.637 85.3864C76.637 85.7717 76.4839 86.1414 76.2114 86.4139C75.9389 86.6864 75.5693 86.8395 75.1839 86.8395Z" fill="#B9C8DB"/>
<path d="M108.157 44.2235H107.219C106.834 44.2235 106.464 44.0704 106.192 43.7979C105.919 43.5254 105.766 43.1558 105.766 42.7704C105.766 42.385 105.919 42.0154 106.192 41.7429C106.464 41.4704 106.834 41.3173 107.219 41.3173H108.157C108.542 41.3173 108.912 41.4704 109.184 41.7429C109.457 42.0154 109.61 42.385 109.61 42.7704C109.61 43.1558 109.457 43.5254 109.184 43.7979C108.912 44.0704 108.542 44.2235 108.157 44.2235Z" fill="#B9C8DB"/>
<path d="M100.96 44.2235H90.6602C90.2748 44.2235 89.9052 44.0704 89.6326 43.7979C89.3601 43.5254 89.207 43.1558 89.207 42.7704C89.207 42.385 89.3601 42.0154 89.6326 41.7429C89.9052 41.4704 90.2748 41.3173 90.6602 41.3173H100.96C101.345 41.3173 101.715 41.4704 101.987 41.7429C102.26 42.0154 102.413 42.385 102.413 42.7704C102.413 43.1558 102.26 43.5254 101.987 43.7979C101.715 44.0704 101.345 44.2235 100.96 44.2235Z" fill="#B9C8DB"/>
<path d="M108.157 32.1141H97.7751C97.3898 32.1141 97.0201 31.961 96.7476 31.6885C96.4751 31.416 96.322 31.0464 96.322 30.661C96.322 30.2756 96.4751 29.906 96.7476 29.6335C97.0201 29.361 97.3898 29.2079 97.7751 29.2079H108.157C108.542 29.2079 108.912 29.361 109.185 29.6335C109.457 29.906 109.61 30.2756 109.61 30.661C109.61 31.0464 109.457 31.416 109.185 31.6885C108.912 31.961 108.542 32.1141 108.157 32.1141Z" fill="#B9C8DB"/>
<path d="M91.5158 32.1141H90.6602C90.2748 32.1141 89.9052 31.961 89.6326 31.6885C89.3601 31.416 89.207 31.0464 89.207 30.661C89.207 30.2756 89.3601 29.906 89.6326 29.6335C89.9052 29.361 90.2748 29.2079 90.6602 29.2079H91.5158C91.9012 29.2079 92.2708 29.361 92.5433 29.6335C92.8158 29.906 92.9689 30.2756 92.9689 30.661C92.9689 31.0464 92.8158 31.416 92.5433 31.6885C92.2708 31.961 91.9012 32.1141 91.5158 32.1141Z" fill="#B9C8DB"/>
<path d="M66.4831 48.3977C66.2923 48.3978 66.1033 48.3602 65.927 48.2872C65.7507 48.2142 65.5905 48.1071 65.4555 47.9722L61.3141 43.8296C61.1762 43.6953 61.0663 43.535 60.9908 43.3579C60.9154 43.1808 60.8758 42.9905 60.8745 42.7981C60.8732 42.6056 60.9102 42.4148 60.9833 42.2367C61.0563 42.0586 61.1641 41.8968 61.3002 41.7607C61.4363 41.6246 61.5981 41.5169 61.7762 41.4439C61.9543 41.3708 62.1451 41.3339 62.3376 41.3352C62.5301 41.3365 62.7204 41.3761 62.8974 41.4515C63.0745 41.527 63.2348 41.6369 63.3691 41.7749L66.4841 44.8896L76.0711 35.3017C76.3443 35.0328 76.7128 34.8829 77.0961 34.8844C77.4794 34.886 77.8466 35.0389 78.1177 35.31C78.3888 35.5811 78.5417 35.9483 78.5433 36.3316C78.5449 36.7149 78.3949 37.0834 78.126 37.3566L67.5105 47.9722C67.238 48.2446 66.8684 48.3977 66.4831 48.3977Z" fill="#F4F8FC"/>
<path d="M61.8667 7.41992H105.737V15.7463H61.8667V7.41992Z" fill="#475673"/>
</svg>
