<svg width="32" height="32" viewBox="0 0 32 32" fill="none" xmlns="http://www.w3.org/2000/svg">
<g clip-path="url(#clip0)">
<path d="M30.5452 16.1342V11.6367C30.5452 10.1116 29.3623 8.87133 27.8677 8.75106L23.6909 1.45572C23.3039 0.781006 22.6788 0.298763 21.931 0.0985167C21.1866 -0.100366 20.4083 0.00408642 19.7421 0.39183L5.42394 8.7276H2.90923C1.30487 8.7276 0.000167847 10.0322 0.000167847 11.6367V29.0909C0.000167847 30.6953 1.30481 32 2.90923 32H27.6361C29.2405 32 30.5452 30.6954 30.5452 29.0909V24.5934C31.3899 24.2922 31.9997 23.4925 31.9997 22.5456V18.182C31.9997 17.2351 31.3899 16.4354 30.5452 16.1342ZM26.1775 8.7276H19.8387L24.5929 5.95974L26.1775 8.7276ZM23.8702 4.69751L16.9479 8.7276H14.0766L23.1523 3.4436L23.8702 4.69751ZM20.4743 1.64888C20.8031 1.4564 21.1873 1.40527 21.5545 1.50331C21.926 1.60272 22.2357 1.84278 22.4281 2.17871L22.4296 2.18137L11.186 8.7276H8.31481L20.4743 1.64888ZM29.0906 29.0909C29.0906 29.8927 28.4379 30.5454 27.6361 30.5454H2.90923C2.10743 30.5454 1.45474 29.8927 1.45474 29.0909V11.6367C1.45474 10.8349 2.10743 10.1822 2.90923 10.1822H27.6361C28.4379 10.1822 29.0906 10.8349 29.0906 11.6367V16.0002H24.7271C22.3208 16.0002 20.3635 17.9576 20.3635 20.3638C20.3635 22.77 22.3208 24.7274 24.7271 24.7274H29.0906V29.0909V29.0909ZM30.5452 22.5456C30.5452 22.9468 30.2192 23.2729 29.8179 23.2729H24.7271C23.1227 23.2729 21.818 21.9682 21.818 20.3638C21.818 18.7594 23.1226 17.4547 24.7271 17.4547H29.8179C30.2192 17.4547 30.5452 17.7807 30.5452 18.182V22.5456V22.5456Z" fill="#1A1A1A"/>
<path d="M24.7271 18.9094C23.9253 18.9094 23.2726 19.5621 23.2726 20.3639C23.2726 21.1657 23.9253 21.8184 24.7271 21.8184C25.5289 21.8184 26.1816 21.1657 26.1816 20.3639C26.1816 19.5621 25.529 18.9094 24.7271 18.9094Z" fill="#1A1A1A"/>
</g>
<defs>
<clipPath id="clip0">
<rect width="32" height="32" fill="white"/>
</clipPath>
</defs>
</svg>
