<svg width="148" height="147" viewBox="0 0 148 147" fill="none" xmlns="http://www.w3.org/2000/svg">
<circle cx="98" cy="50" r="50" fill="#FDF4DE"/>
<g clip-path="url(#clip0)">
<path d="M109.295 136.697H14.7047C9.66333 136.697 5.57642 132.61 5.57642 127.568V48.8041C5.57642 43.7627 9.66333 39.6758 14.7047 39.6758H109.295C114.337 39.6758 118.424 43.7627 118.424 48.8041V127.568C118.424 132.61 114.337 136.697 109.295 136.697Z" fill="url(#paint0_linear)"/>
<path d="M107.186 134.533H16.8142C11.9976 134.533 8.09277 130.628 8.09277 125.811V50.5603C8.09277 45.7437 11.9973 41.8389 16.8142 41.8389H107.186C112.002 41.8389 115.907 45.7434 115.907 50.5603V125.812C115.907 130.628 112.003 134.533 107.186 134.533Z" fill="url(#paint1_linear)"/>
<path d="M112.307 65.1529L89.5551 25.7451C88.0397 23.12 84.6828 22.2205 82.0577 23.7364L10.3223 65.1529H112.307Z" fill="url(#paint2_linear)"/>
<path d="M5.57642 96.8694H118.424V66.9806C118.424 63.208 115.366 60.1499 111.593 60.1499H12.4071C8.63452 60.1499 5.57642 63.208 5.57642 66.9806V96.8694Z" fill="url(#paint3_linear)"/>
<path d="M5.57642 85.6284V127.568C5.57642 132.609 9.66333 136.696 14.7049 136.696H109.295C114.337 136.696 118.424 132.61 118.424 127.568V85.6284C118.424 82.5146 115.899 79.9902 112.786 79.9902H11.2145C8.10074 79.9902 5.57642 82.5143 5.57642 85.6284Z" fill="url(#paint4_linear)"/>
<path d="M101.399 63.9966V136.697H109.295C114.337 136.697 118.424 132.61 118.424 127.568V81.0214L101.399 63.9966Z" fill="url(#paint5_linear)"/>
<path d="M93.7017 146.931L14.4853 137.731C9.4071 137.141 5.57642 132.84 5.57642 127.728V48.123C5.57642 49.8339 6.85831 51.2729 8.55726 51.4703L96.025 61.6291C101.103 62.2191 104.934 66.5201 104.934 71.6324V136.928C104.934 142.95 99.6835 147.626 93.7017 146.931Z" fill="url(#paint6_linear)"/>
<path d="M93.7017 131.031L14.4853 121.83C9.4071 121.24 5.57642 116.939 5.57642 111.827V127.728C5.57642 132.84 9.4071 137.141 14.4853 137.731L93.7017 146.931C99.6835 147.626 104.934 142.95 104.934 136.928V121.027C104.934 127.05 99.6835 131.725 93.7017 131.031Z" fill="url(#paint7_linear)"/>
<path d="M12.6784 60.5311C12.6121 60.5311 12.5447 60.5272 12.4772 60.52L8.8521 60.1213C7.85089 60.0111 7.12845 59.1107 7.23864 58.1097C7.34884 57.1088 8.25002 56.3871 9.25025 56.4963L12.8753 56.8949C13.8765 57.0051 14.599 57.9056 14.4888 58.9065C14.3861 59.8402 13.5961 60.5311 12.6784 60.5311Z" fill="url(#paint8_linear)"/>
<path d="M87.1668 140.924C87.0903 140.924 87.0123 140.918 86.9343 140.909L79.8888 140.013C78.89 139.886 78.1829 138.973 78.31 137.974C78.4371 136.975 79.35 136.272 80.3492 136.395L87.3947 137.291C88.3935 137.418 89.1009 138.331 88.9735 139.33C88.856 140.251 88.0714 140.924 87.1668 140.924ZM94.1016 140.021C93.4177 140.021 92.7616 139.634 92.4508 138.974C92.0214 138.063 92.4121 136.976 93.3232 136.547C95.1733 135.676 96.5646 134.23 97.1408 132.58C97.4728 131.63 98.5133 131.128 99.4636 131.46C100.414 131.792 100.916 132.832 100.584 133.782C99.6741 136.388 97.6477 138.542 94.8776 139.847C94.6264 139.965 94.3622 140.021 94.1016 140.021ZM73.0761 139.132C72.9996 139.132 72.9216 139.127 72.8436 139.117L65.7981 138.221C64.7993 138.094 64.0919 137.181 64.2193 136.182C64.3464 135.183 65.2592 134.48 66.2585 134.603L73.304 135.499C74.3028 135.626 75.0102 136.539 74.8828 137.538C74.7653 138.459 73.9802 139.132 73.0761 139.132ZM58.9854 137.34C58.9088 137.34 58.8311 137.335 58.7529 137.325L51.7074 136.429C50.7086 136.302 50.0012 135.389 50.1286 134.39C50.2557 133.391 51.1688 132.685 52.1678 132.811L59.2133 133.707C60.2121 133.834 60.9195 134.747 60.7921 135.746C60.6746 136.667 59.8895 137.34 58.9854 137.34ZM44.8942 135.548C44.8176 135.548 44.7399 135.543 44.6617 135.533L37.616 134.637C36.6169 134.51 35.9097 133.597 36.0371 132.598C36.1643 131.599 37.0776 130.896 38.0764 131.019L45.1221 131.915C46.1211 132.042 46.8283 132.955 46.7009 133.954C46.5839 134.875 45.7987 135.548 44.8942 135.548ZM30.8035 133.756C30.7269 133.756 30.6492 133.751 30.571 133.741L23.5253 132.845C22.5262 132.718 21.819 131.805 21.9464 130.806C22.0736 129.807 22.9869 129.103 23.9856 129.227L31.0314 130.123C32.0304 130.25 32.7376 131.163 32.6102 132.162C32.493 133.083 31.708 133.756 30.8035 133.756ZM99.2716 127.95C98.2643 127.95 97.4481 127.133 97.4481 126.126V119.024C97.4481 118.017 98.2643 117.201 99.2716 117.201C100.279 117.201 101.095 118.017 101.095 119.024V126.126C101.095 127.133 100.279 127.95 99.2716 127.95ZM99.2716 113.746C98.2643 113.746 97.4481 112.929 97.4481 111.922V104.82C97.4481 103.813 98.2643 102.997 99.2716 102.997C100.279 102.997 101.095 103.813 101.095 104.82V111.922C101.095 112.929 100.279 113.746 99.2716 113.746ZM99.2716 99.5412C98.2643 99.5412 97.4481 98.725 97.4481 97.7178V90.6156C97.4481 89.6084 98.2643 88.7922 99.2716 88.7922C100.279 88.7922 101.095 89.6084 101.095 90.6156V97.7178C101.095 98.7248 100.279 99.5412 99.2716 99.5412ZM99.2716 85.3369C98.2643 85.3369 97.4481 84.5207 97.4481 83.5135V76.4113C97.4481 75.4041 98.2643 74.5879 99.2716 74.5879C100.279 74.5879 101.095 75.4041 101.095 76.4113V83.5135C101.095 84.5205 100.279 85.3369 99.2716 85.3369ZM96.7213 71.8604C96.2711 71.8604 95.8199 71.6945 95.4675 71.3605C94.1159 70.0798 92.2401 69.2639 90.1852 69.0626L90.137 69.0576C89.1355 68.9498 88.4111 68.0505 88.5192 67.0493C88.6269 66.0479 89.5259 65.3233 90.5274 65.4315L90.5584 65.4349C93.3985 65.7132 96.0388 66.8781 97.9761 68.7132C98.7073 69.4058 98.7383 70.5601 98.0456 71.2913C97.6867 71.6693 97.2045 71.8604 96.7213 71.8604ZM83.2744 68.292C83.208 68.292 83.1407 68.2881 83.0731 68.2809L76.0136 67.5046C75.0126 67.3945 74.2899 66.494 74.4001 65.493C74.5103 64.4921 75.4115 63.7716 76.4117 63.8796L83.4713 64.6558C84.4722 64.766 85.1949 65.6664 85.0847 66.6674C84.9823 67.6008 84.192 68.292 83.2744 68.292ZM69.1556 66.7396C69.0892 66.7396 69.0219 66.7357 68.9543 66.7284L61.8945 65.9522C60.8936 65.842 60.1709 64.9416 60.2811 63.9406C60.391 62.9394 61.2937 62.2182 62.2927 62.3272L69.3525 63.1034C70.3534 63.2136 71.0761 64.114 70.9659 65.115C70.8632 66.0486 70.0732 66.7396 69.1556 66.7396ZM55.036 65.1874C54.9697 65.1874 54.9023 65.1835 54.8348 65.1763L47.7752 64.4C46.7743 64.2898 46.0516 63.3894 46.1618 62.3884C46.2717 61.3875 47.1724 60.6662 48.1734 60.775L55.2329 61.5512C56.2339 61.6614 56.9566 62.5618 56.8464 63.5628C56.7439 64.4962 55.9539 65.1874 55.036 65.1874ZM40.9167 63.6352C40.8504 63.6352 40.783 63.6313 40.7155 63.6241L33.656 62.8479C32.6547 62.7377 31.9323 61.8372 32.0425 60.8363C32.1525 59.8355 33.0522 59.1145 34.0541 59.2228L41.1136 59.999C42.1146 60.1092 42.8373 61.0097 42.7271 62.0106C42.6249 62.944 41.8346 63.6352 40.9167 63.6352ZM26.7974 62.0828C26.7311 62.0828 26.6638 62.0789 26.5962 62.0717L19.5367 61.2954C18.5357 61.1852 17.813 60.2848 17.9232 59.2838C18.0334 58.2831 18.9334 57.5624 19.9348 57.6704L26.9943 58.4466C27.9955 58.5568 28.718 59.4572 28.6078 60.4582C28.5054 61.3916 27.7151 62.0828 26.7974 62.0828Z" fill="url(#paint9_linear)"/>
<path d="M16.6957 131.962C16.6191 131.962 16.5416 131.957 16.4634 131.947L12.8454 131.487C11.8463 131.36 11.1389 130.447 11.2663 129.448C11.3932 128.449 12.3062 127.743 13.3053 127.869L16.9233 128.329C17.9223 128.456 18.6298 129.369 18.5024 130.368C18.3852 131.289 17.6 131.962 16.6957 131.962Z" fill="url(#paint10_linear)"/>
<path d="M83.6922 36.579L72.0217 42.9296C70.5015 43.7567 68.5986 43.195 67.7713 41.6748C66.9442 40.1546 67.5059 38.2518 69.0261 37.4244L80.6969 31.074C82.2171 30.247 84.1199 30.8086 84.9472 32.3288C85.7743 33.8488 85.2127 35.7519 83.6922 36.579Z" fill="#61DB99"/>
<path d="M104.934 111.113L93.3521 99.5311C91.7181 97.7517 89.3732 96.6357 86.767 96.6357C81.8298 96.6357 77.8274 100.638 77.8274 105.575C77.8274 108.182 78.9434 110.527 80.7227 112.16L104.934 136.372V111.113H104.934Z" fill="url(#paint11_linear)"/>
<path d="M86.766 114.514C91.7033 114.514 95.7057 110.512 95.7057 105.574C95.7057 100.637 91.7033 96.6348 86.766 96.6348C81.8288 96.6348 77.8264 100.637 77.8264 105.574C77.8264 110.512 81.8288 114.514 86.766 114.514Z" fill="url(#paint12_linear)"/>
<path d="M86.7662 111.744C90.1735 111.744 92.9356 108.982 92.9356 105.574C92.9356 102.167 90.1735 99.4048 86.7662 99.4048C83.3589 99.4048 80.5967 102.167 80.5967 105.574C80.5967 108.982 83.3589 111.744 86.7662 111.744Z" fill="url(#paint13_linear)"/>
<path d="M84.4221 104.507C85.1271 104.507 85.6986 103.936 85.6986 103.231C85.6986 102.526 85.1271 101.954 84.4221 101.954C83.717 101.954 83.1455 102.526 83.1455 103.231C83.1455 103.936 83.717 104.507 84.4221 104.507Z" fill="url(#paint14_linear)"/>
<path d="M89.1101 104.507C89.8151 104.507 90.3866 103.936 90.3866 103.231C90.3866 102.526 89.8151 101.954 89.1101 101.954C88.405 101.954 87.8335 102.526 87.8335 103.231C87.8335 103.936 88.405 104.507 89.1101 104.507Z" fill="url(#paint15_linear)"/>
<path d="M84.4221 109.197C85.1271 109.197 85.6986 108.626 85.6986 107.921C85.6986 107.216 85.1271 106.644 84.4221 106.644C83.717 106.644 83.1455 107.216 83.1455 107.921C83.1455 108.626 83.717 109.197 84.4221 109.197Z" fill="url(#paint16_linear)"/>
<path d="M89.1101 109.197C89.8151 109.197 90.3866 108.626 90.3866 107.921C90.3866 107.216 89.8151 106.644 89.1101 106.644C88.405 106.644 87.8335 107.216 87.8335 107.921C87.8335 108.626 88.405 109.197 89.1101 109.197Z" fill="url(#paint17_linear)"/>
</g>
<defs>
<linearGradient id="paint0_linear" x1="63.8441" y1="34.0835" x2="63.1852" y2="53.4018" gradientUnits="userSpaceOnUse">
<stop stop-color="#FFB92D"/>
<stop offset="1" stop-color="#F59500"/>
</linearGradient>
<linearGradient id="paint1_linear" x1="67.0032" y1="46.9101" x2="65.2089" y2="61.7096" gradientUnits="userSpaceOnUse">
<stop stop-color="#FFB92D"/>
<stop offset="1" stop-color="#F59500"/>
</linearGradient>
<linearGradient id="paint2_linear" x1="61.3134" y1="47.3475" x2="61.3134" y2="58.6215" gradientUnits="userSpaceOnUse">
<stop stop-color="#A7F3CE"/>
<stop offset="1" stop-color="#61DB99"/>
</linearGradient>
<linearGradient id="paint3_linear" x1="61.9988" y1="66.8639" x2="61.9988" y2="98.5002" gradientUnits="userSpaceOnUse">
<stop stop-color="#FF4C54"/>
<stop offset="1" stop-color="#BE3F45"/>
</linearGradient>
<linearGradient id="paint4_linear" x1="61.9988" y1="90.3551" x2="61.9988" y2="139.215" gradientUnits="userSpaceOnUse">
<stop stop-color="#FF4C54"/>
<stop offset="1" stop-color="#BE3F45"/>
</linearGradient>
<linearGradient id="paint5_linear" x1="112.004" y1="100.348" x2="103.771" y2="100.348" gradientUnits="userSpaceOnUse">
<stop stop-color="#BE3F45" stop-opacity="0"/>
<stop offset="1" stop-color="#BE3F45"/>
</linearGradient>
<linearGradient id="paint6_linear" x1="38.3771" y1="91.896" x2="80.2566" y2="111.214" gradientUnits="userSpaceOnUse">
<stop stop-color="#FFB92D"/>
<stop offset="1" stop-color="#F59500"/>
</linearGradient>
<linearGradient id="paint7_linear" x1="53.9199" y1="134.909" x2="52.1888" y2="148.14" gradientUnits="userSpaceOnUse">
<stop stop-color="#BE3F45" stop-opacity="0"/>
<stop offset="1" stop-color="#BE3F45"/>
</linearGradient>
<linearGradient id="paint8_linear" x1="10.8633" y1="56.487" x2="10.8633" y2="141.099" gradientUnits="userSpaceOnUse">
<stop stop-color="#FFF465"/>
<stop offset="1" stop-color="#FFE600"/>
</linearGradient>
<linearGradient id="paint9_linear" x1="59.5024" y1="56.4892" x2="59.5024" y2="140.924" gradientUnits="userSpaceOnUse">
<stop stop-color="#FFF465"/>
<stop offset="1" stop-color="#FFE600"/>
</linearGradient>
<linearGradient id="paint10_linear" x1="14.8839" y1="56.4845" x2="14.8839" y2="141.095" gradientUnits="userSpaceOnUse">
<stop stop-color="#FFF465"/>
<stop offset="1" stop-color="#FFE600"/>
</linearGradient>
<linearGradient id="paint11_linear" x1="98.6969" y1="117.508" x2="73.6446" y2="92.4559" gradientUnits="userSpaceOnUse">
<stop stop-color="#BE3F45" stop-opacity="0"/>
<stop offset="1" stop-color="#BE3F45"/>
</linearGradient>
<linearGradient id="paint12_linear" x1="86.7641" y1="99.9639" x2="86.7641" y2="112.891" gradientUnits="userSpaceOnUse">
<stop stop-color="#FF4C54"/>
<stop offset="1" stop-color="#BE3F45"/>
</linearGradient>
<linearGradient id="paint13_linear" x1="86.7642" y1="109.448" x2="86.7642" y2="100.528" gradientUnits="userSpaceOnUse">
<stop stop-color="#FF4C54"/>
<stop offset="1" stop-color="#BE3F45"/>
</linearGradient>
<linearGradient id="paint14_linear" x1="72.3209" y1="49.7984" x2="74.8738" y2="61.0724" gradientUnits="userSpaceOnUse">
<stop stop-color="#A7F3CE"/>
<stop offset="1" stop-color="#61DB99"/>
</linearGradient>
<linearGradient id="paint15_linear" x1="77.0087" y1="49.7989" x2="79.5616" y2="61.0729" gradientUnits="userSpaceOnUse">
<stop stop-color="#A7F3CE"/>
<stop offset="1" stop-color="#61DB99"/>
</linearGradient>
<linearGradient id="paint16_linear" x1="71.3107" y1="50.027" x2="73.8636" y2="61.301" gradientUnits="userSpaceOnUse">
<stop stop-color="#A7F3CE"/>
<stop offset="1" stop-color="#61DB99"/>
</linearGradient>
<linearGradient id="paint17_linear" x1="75.9985" y1="50.0275" x2="78.5514" y2="61.3016" gradientUnits="userSpaceOnUse">
<stop stop-color="#A7F3CE"/>
<stop offset="1" stop-color="#61DB99"/>
</linearGradient>
<clipPath id="clip0">
<rect width="124" height="124" fill="white" transform="translate(0 23)"/>
</clipPath>
</defs>
</svg>
