<svg width="148" height="159" viewBox="0 0 148 159" fill="none" xmlns="http://www.w3.org/2000/svg">
<circle cx="98" cy="50" r="50" fill="#FDF4DE"/>
<g clip-path="url(#clip0)">
<path d="M119.517 39.4814C116.625 36.5912 112.781 35 108.694 35H15.3061C11.2191 35 7.37537 36.5912 4.48141 39.4833C1.59125 42.3763 0 46.2191 0 50.3061V65.8713C0 69.9583 1.59125 73.8011 4.48331 76.696C7.37631 79.5862 11.2191 81.1765 15.3061 81.1765H108.694C112.781 81.1765 116.625 79.5852 119.519 76.6931C122.409 73.8011 124 69.9573 124 65.8713V50.3061C124 46.2191 122.409 42.3763 119.517 39.4814Z" fill="#FDBF00"/>
<path d="M124 50.3061V65.8713C124 69.9573 122.409 73.8011 119.52 76.6922C116.623 79.5871 112.78 81.1783 108.694 81.1783H62V35H108.694C112.78 35 116.623 36.5912 119.517 39.4805C122.409 42.3773 124 46.2201 124 50.3061Z" fill="#FF9F00"/>
<path d="M100.653 65.354H23.3464C19.3343 65.354 16.0808 62.1015 16.0808 58.0884C16.0808 54.0762 19.3343 50.8228 23.3464 50.8228H100.653C104.666 50.8228 107.919 54.0762 107.919 58.0884C107.919 62.1015 104.666 65.354 100.653 65.354Z" fill="#B32445"/>
<path d="M107.919 58.0874C107.919 60.0959 107.105 61.9123 105.79 63.2244C104.475 64.5394 102.658 65.353 100.654 65.353H62V50.8218H100.654C104.667 50.8218 107.919 54.0752 107.919 58.0874Z" fill="#922338"/>
<path d="M23.3464 50.8228V147.585C23.3464 150.636 24.5347 153.503 26.6888 155.654C28.8439 157.812 31.7104 159 34.7614 159H89.2385C92.2895 159 95.156 157.812 97.3073 155.658C99.4643 153.503 100.652 150.636 100.652 147.585V50.8228H23.3464Z" fill="#76BE00"/>
<path d="M62 50.8218V159H89.2385C92.2876 159 95.1551 157.811 97.3064 155.658C99.4643 153.503 100.654 150.635 100.654 147.586V50.8218H62Z" fill="#3E9400"/>
<path d="M38.9119 93.1087C38.9119 80.3778 49.2692 70.0205 62.0001 70.0205C74.731 70.0205 85.0883 80.3778 85.0883 93.1087C85.0883 105.84 74.731 116.197 62.0001 116.197C49.2692 116.197 38.9119 105.84 38.9119 93.1087Z" fill="#3E9400"/>
<path d="M85.0873 93.1078C85.0873 105.84 74.7319 116.198 62 116.198V70.0205C70.3678 70.0205 77.711 74.4953 81.76 81.1782C83.8716 84.6606 85.0873 88.7465 85.0873 93.1078Z" fill="#277100"/>
<path d="M23.3464 50.8228H100.652V58.0884H23.3464V50.8228Z" fill="#3E9400"/>
<path d="M62 50.8228H100.654V58.0884H62V50.8228Z" fill="#277100"/>
<path d="M81.4555 132.279H42.5447C40.5381 132.279 38.9119 133.905 38.9119 135.912C38.9119 137.917 40.5381 139.544 42.5447 139.544H81.4555C83.4621 139.544 85.0883 137.917 85.0883 135.912C85.0883 133.905 83.4621 132.279 81.4555 132.279Z" fill="#3E9400"/>
<path d="M81.4554 132.279H62V139.544H81.4554C83.462 139.544 85.0882 137.917 85.0882 135.912C85.0882 133.905 83.462 132.279 81.4554 132.279Z" fill="#277100"/>
</g>
<defs>
<clipPath id="clip0">
<rect width="124" height="124" fill="white" transform="translate(0 35)"/>
</clipPath>
</defs>
</svg>
